# Alias OBJ Model File
# Exported from SketchUp, (c) 2000-2012 Trimble Navigation Limited
# File units = meters

mtllib Museo+de+arte+religioso+(Cali).mtl

g Mesh1 Model

usemtl M_1
v -5.89822 0.051 -2.80537
vt 0.998611 3.22659e-16
vn -0.956008 4.32113e-17 0.29334
v -5.88506 0.051 -2.76249
vt 1 6.6093e-16
v -5.88506 4.48765 -2.76249
vt 1 0.950348
v -5.89822 4.48765 -2.80537
vt 0.998611 0.950348
v -12.6864 4.48765 -24.9282
vt 0.281851 0.950348
v -14.9267 4.48765 -32.2295
vt 0.0452939 0.950348
v -14.9267 0.051 -32.2295
vt 0.0452939 0
f 1/1/1 2/2/1 3/3/1 4/4/1 5/5/1 6/6/1 7/7/1 

usemtl FrontColor
vt 231.695 108.76
vn 4.97665e-15 -1 1.09173e-14
vt 232.213 110.448
v -5.50046 0.051 -2.9523
vt 216.553 116.232
v -5.47663 0.051 -2.88781
vt 215.616 113.693
f 2/8/2 1/9/2 8/10/2 9/11/2 

v -5.91667 0.051 -2.79856
vt 232.94 110.18
vn 1.19719e-13 -1 -4.35058e-14
v -5.79539 0.051 -2.47024
vt 228.165 97.2537
f 10/12/3 1/9/3 2/8/3 11/13/3 

usemtl M_3_2_
vt -0.2309 0.377444
vn 0.346502 1.66608e-16 0.938049
vt -0.23091 0.379099
v -5.50046 4.48765 -2.9523
vt -0.2403 0.378961
vt -0.24029 0.377306
v -5.91667 4.48765 -2.79856
vt -0.240289 0.377229
vt -0.230899 0.377367
f 1/14/4 8/15/4 12/16/4 4/17/4 13/18/4 10/19/4 

v -5.37918 0.051 -2.62399
vt -0.230905 0.378363
vn -0.938049 4.48853e-16 0.346502
v -5.37918 4.48765 -2.62399
vt -0.240296 0.378225
vt -0.240287 0.376859
vt -0.230897 0.376997
vt -0.230898 0.377265
f 14/20/5 15/21/5 12/22/5 8/23/5 9/24/5 

vt -0.239418 0.241464
vn 0.973596 -4.02263e-16 -0.228277
v -2.754 4.48765 8.57237
vt -0.23913 0.196572
v -2.754 0.051 8.57237
vt -0.22974 0.19671
vt -0.230028 0.241602
f 15/25/6 16/26/6 17/27/6 14/28/6 

usemtl Google_Earth_Snapshot
vt 0.482661 0.516297
vn -5.02711e-17 1 -4.11326e-16
vt 0.48137 0.515537
vt 0.481413 0.515316
v -5.90148 4.48765 -2.75745
vt 0.48136 0.51529
v -5.79539 4.48765 -2.47024
vt 0.481706 0.513812
v -3.06442 4.48765 9.39964
vt 0.490638 0.452703
v 0.198409 4.48765 8.1944
vt 0.501228 0.458937
v 2.45938 4.48765 11.2112
vt 0.508587 0.443419
v 7.94878 4.48765 7.09703
vt 0.526394 0.464653
v 16.4567 4.48765 9.60542
vt 0.55404 0.451805
v 19.2218 4.48765 17.0911
vt 0.56306 0.413276
v 25.2954 4.48765 14.0553
vt 0.58277 0.428961
v 23.355 4.48765 8.80225
vt 0.57644 0.455999
v 24.1336 4.48765 8.51465
vt 0.578967 0.457487
v 23.2985 4.48765 6.25395
vt 0.576243 0.469123
v 25.3979 4.48765 5.47845
vt 0.583058 0.473134
v 21.665 4.48765 -2.93865
vt 0.57089 0.516453
v 33.0081 4.48765 -8.585
vt 0.6077 0.545627
v 32.6487 4.48765 -9.55797
vt 0.606528 0.550635
v 16.9521 4.48765 -1.81517
vt 0.555589 0.510627
v 3.81006 4.48765 4.66759
vt 0.51294 0.477131
v 1.37215 4.48765 7.04823
vt 0.505035 0.46485
vt 0.491642 0.456966
vt 0.483057 0.514607
f 12/29/7 4/30/7 3/31/7 18/32/7 19/33/7 20/34/7 21/35/7 22/36/7 23/37/7 24/38/7 25/39/7 26/40/7 27/41/7 28/42/7 29/43/7 30/44/7 31/45/7 32/46/7 33/47/7 34/48/7 35/49/7 36/50/7 16/51/7 15/52/7 

usemtl FrontColor
vt -231.695 108.76
vn 0 1 -0
vt -232.213 110.448
vt -232.94 110.18
vt -232.342 108.561
f 3/53/8 4/54/8 13/55/8 18/56/8 

v -7.51181 4.48765 -2.26334
vt -295.741 89.108
vt -499.463 981.424
vt -587.665 1268.88
v 4.14582 4.48765 -41.4117
vt 163.221 1630.38
v 3.40769 4.48765 -42.9449
vt 134.161 1690.74
v -16.9824 4.48765 -33.1283
vt -668.598 1304.27
v -14.3131 4.48765 -24.429
vt -563.508 961.773
v -7.81982 4.48765 -3.26715
vt -307.867 128.628
f 37/57/8 18/56/8 13/55/8 4/54/8 5/58/8 6/59/8 38/60/8 39/61/8 40/62/8 41/63/8 42/64/8 

vt 190.275 176.679
vn -0.29334 -1.32747e-16 -0.956008
vt 256.592 176.679
v -7.51181 4.71945 -2.26334
vt 256.592 185.805
v -4.34561 5.64665 -3.23486
vt 126.202 222.309
v 1.33322 4.48765 -4.97734
vt -107.662 176.679
v 1.33322 0.051 -4.97734
vt -107.662 2.00787
vt 172.779 2.00787
vt 189.599 2.00787
vt 189.599 176.679
f 18/65/9 37/66/9 43/67/9 44/68/9 45/69/9 46/70/9 9/71/9 2/72/9 3/73/9 

usemtl M_1
vt 1 1
vn -0.956008 -3.0859e-15 0.29334
v -14.3131 4.71945 -24.429
vt 0.281851 1
v -16.9824 4.71945 -33.1283
vt 2.22045e-16 1
vt 2.22045e-16 0.950348
vt 0.967477 0.950348
f 43/74/10 47/75/10 48/76/10 40/77/10 41/5/10 42/78/10 37/3/10 

usemtl Google_Earth_Snapshot
v -12.9813 5.64665 -31.3789
vt 0.458216 0.662637
vn -0.257735 0.962974 0.079083
vt 0.445212 0.671614
vt 0.453927 0.626833
vt 0.476132 0.512732
vt 0.48641 0.517762
v -8.33894 5.64665 -16.2493
vt 0.473373 0.584755
v -11.1469 5.64665 -25.4005
vt 0.464205 0.631863
f 49/79/11 48/80/11 47/81/11 43/82/11 44/83/11 50/84/11 51/85/11 

vn -0.116945 0.962974 -0.242909
v 4.84433 5.64665 -39.9608
vt 0.516065 0.706983
v 18.9158 5.64665 -46.7353
vt 0.561731 0.741991
v 45.8146 5.64665 -59.6854
vt 0.649026 0.808909
v 46.1035 4.71945 -63.5002
vt 0.649944 0.828559
v 17.6251 4.71945 -49.7896
vt 0.557523 0.75771
v 17.4792 4.71945 -49.7194
vt 0.55705 0.757347
v 3.40769 4.71945 -42.9449
vt 0.511383 0.72234
f 48/80/12 49/79/12 52/86/12 53/87/12 54/88/12 55/89/12 56/90/12 57/91/12 58/92/12 

v -5.80501 4.48765 -28.2411
vt 0.481539 0.646536
vn 0.0830701 0.981492 0.172546
v 0.788118 4.48765 -31.4153
vt 0.502936 0.662939
f 59/93/13 60/94/13 52/86/13 49/79/13 

usemtl M_1_1_
vt 0.347776 0.858709
vn 0.433783 1.16415e-31 0.901018
vt 0.693463 0.858709
v -5.80501 0.051 -28.2411
vt 0.693463 0
v 0.788118 0.051 -31.4153
vt 0.347776 0
f 60/95/14 59/96/14 61/97/14 62/98/14 

vn 0.956008 0 -0.29334
v -5.46807 4.48765 -27.143
vt 0.701624 0.858709
v -5.46807 0.051 -27.143
vt 0.701624 4.16334e-17
f 59/96/15 63/99/15 64/100/15 61/97/15 

usemtl Google_Earth_Snapshot
vn 0.183077 0.981492 -0.0561752
v -4.03287 4.48765 -22.4656
vt 0.487325 0.616806
vt 0.482639 0.640884
f 51/85/16 50/84/16 65/101/16 63/102/16 59/93/16 49/79/16 

usemtl FrontColor
vt 175.232 -802.957
vn 0.0932076 -0.972364 0.214056
v 9.55316 5.40739 -24.2035
vt 698.153 -666.405
vt -71.973 -630.883
vn 0.0968506 -0.9642 0.246857
f 65/103/17 66/104/17 50/105/18

vt 759.368 -630.477
vt 249.535 -809.818
v 2.83941 4.48765 -25.862
vt 551.336 -809.818
vn 0.0894569 -0.979405 0.181008
f 66/106/17 65/107/17 67/108/19

usemtl M_1_1_
vt 0.736385 0.858709
vn -0.44306 0 -0.896492
vt 0.374262 0.858709
v 2.83941 0.051 -25.862
vt 0.374262 2.15106e-16
v -4.03287 0.051 -22.4656
vt 0.736385 2.18575e-16
f 65/109/20 67/110/20 68/111/20 69/112/20 

vn -0.938049 -7.575e-33 0.346502
f 67/110/21 60/95/21 62/98/21 68/111/21 

usemtl FrontColor
vt 1149.45 479.904
vn 0.151208 -0.986803 -0.0579243
vt 763.538 708.115
vt 916.377 479.904
vn 0.14884 -0.987332 -0.0549795
f 60/113/22 66/114/22 67/115/23

vt 747.269 726.292
vt 1138.37 507.096
vt 1392.3 783.313
vn 0.153573 -0.986261 -0.0608683
f 66/116/22 60/117/22 52/118/24

vt -1505.87 -454.021
vn -0.166567 -0.984825 0.0487288
v 14.139 4.48765 -31.6132
vt -1112.18 -752.356
vt -861.264 -515.608
vn -0.150013 -0.988234 0.0298237
f 52/119/25 70/120/25 66/121/26

vt -974.627 -900.638
vt -1409.71 -666.759
v 12.1853 4.48765 -36.9023
vt -1196.61 -900.638
vn -0.183013 -0.980783 0.0676025
f 70/122/25 52/123/25 71/124/27

usemtl Google_Earth_Snapshot
vt 0.539923 0.691293
v 15.1466 4.48765 -38.328
vt 0.549533 0.69866
v 19.3427 5.40739 -45.5799
vt 0.563124 0.736043
f 53/87/13 52/86/13 71/125/13 72/126/13 73/127/13 

usemtl M_2
vt 0.748151 1
vn 0.433783 -1.97097e-17 0.901018
vt 0.834382 1
v 12.1853 0.051 -36.9023
vt 0.834382 2.66974e-15
v 15.1466 0.051 -38.328
vt 0.748151 3.05485e-15
f 72/128/28 71/129/28 74/130/28 75/131/28 

vn 0.938049 -2.29049e-17 -0.346502
vt 0.848392 1
v 14.139 0.051 -31.6132
vt 0.848392 2.53443e-15
f 71/129/29 70/132/29 76/133/29 74/130/29 

vn -0.321635 0 -0.946864
v 17.4887 4.48765 -32.751
vt 0.756254 1
v 17.4887 0.051 -32.751
vt 0.756254 2.55698e-15
f 70/132/30 77/134/30 78/135/30 76/133/30 

usemtl Google_Earth_Snapshot
vt 0.531441 0.62587
vn -0.0561296 0.985813 -0.158187
vt 0.55717 0.669957
vt 0.546296 0.664069
vn -0.052667 0.986502 -0.155047
f 66/136/31 77/137/31 70/138/32

v 25.1154 5.40739 -29.952
vt 0.581954 0.655605
vn -0.0595908 0.985101 -0.161324
f 77/137/31 66/136/31 79/139/33

vn 0.0505227 0.989313 0.136775
v 14.8664 4.48765 -19.5135
vt 0.548722 0.601759
v 27.2777 4.48765 -24.0981
vt 0.589008 0.625474
f 79/139/34 66/136/34 80/140/34 81/141/34 

vn 0.208748 0.976539 -0.0528827
v 16.7019 4.48765 -12.9687
vt 0.554718 0.568068
vn 0.223761 0.972622 -0.0627558
f 66/136/35 82/142/35 80/140/36

v 13.2874 5.21765 -11.7075
vt 0.543635 0.561544
vn 0.193665 0.980125 -0.0429917
f 82/142/35 66/136/35 83/143/37

v 7.26743 4.48765 -16.7065
vt 0.524057 0.58724
vn -0.169903 0.983573 0.0609714
vn -0.174905 0.98229 0.0671829
f 84/144/38 83/143/38 66/136/39

v 9.40389 4.48765 -10.273
vt 0.531029 0.554124
vn -0.164889 0.984791 0.0547561
f 83/143/38 84/144/38 85/145/40

usemtl M_1_1_
vt 0.414302 0.858709
vn -0.94904 0 0.315155
vt 0.3734 0.858709
v 7.26743 0.051 -16.7065
vt 0.3734 1.70176e-15
v 9.40389 0.051 -10.273
vt 0.414302 1.94636e-15
f 85/146/41 84/147/41 86/148/41 87/149/41 

vn 0.346502 0 0.938049
v -1.29524 4.48765 -13.5436
vt 0.802692 0.858709
v -1.29524 0.051 -13.5436
vt 0.802692 1.6688e-15
f 84/147/42 88/150/42 89/151/42 86/148/42 

usemtl Google_Earth_Snapshot
vt 0.496263 0.570879
vn -0.698547 0.162419 -0.696888
f 88/152/43 84/144/34 66/136/43

usemtl FrontColor
vt -772.182 702.27
vt -199.923 522.326
vt -2.65947 749.08
vn -0.0925389 -0.979544 -0.178691
f 66/153/43 88/154/43 50/155/44

usemtl Google_Earth_Snapshot
vt 0.504845 0.526783
f 45/156/16 88/152/16 50/84/16 44/83/16 

usemtl M_1_1_
vt 0.866356 0.858709
vt 0.866356 1.99146e-15
f 88/150/15 45/157/15 46/158/15 89/151/15 

vn 0.346502 1.49612e-16 0.938049
v 13.0529 0.051 -11.6208
vt 0.231358 1.9585e-15
v 13.0529 4.8456 -11.6208
vt 0.231358 0.927989
v 13.2968 4.8456 -11.7109
vt 0.21913 0.927989
v 13.2968 0.051 -11.7109
vt 0.21913 1.9585e-15
v 16.7019 0.051 -12.9687
vt 0.0484137 1.97238e-15
vt 0.0484137 0.858709
vt 0.219601 1
f 87/149/45 90/159/45 91/160/45 92/161/45 93/162/45 94/163/45 82/164/45 83/165/45 85/146/45 

usemtl M_3_2_
vt -0.238786 0.0248251
vn -0.938049 1.00512e-16 0.346502
vt -0.228638 0.0249739
v 16.7083 0.051 -1.72508
vt -0.228903 0.0661548
v 16.7083 4.8456 -1.72508
vt -0.23905 0.066006
f 91/166/46 90/167/46 95/168/46 96/169/46 

usemtl M_1_3_
vt 1 0
vn 0.346502 2.36075e-16 0.938049
v 16.9521 0.051 -1.81517
vt 0 0
vt 0 0.925344
v 16.9521 4.8456 -1.81517
vt 0 1
f 95/170/47 97/171/47 34/172/47 98/173/47 96/74/47 

usemtl M_3_2_
v 32.6487 0.051 -9.55797
vt -0.228739 0.0407098
vn -0.442387 1.05171e-17 -0.896824
vt -0.229178 0.109033
vt -0.238568 0.108895
vt -0.238129 0.0405721
f 99/174/48 97/175/48 34/176/48 33/177/48 

vt -0.228958 0.0747694
vn 0.938049 -7.50326e-17 -0.346502
vt -0.239105 0.0746206
vt -0.238841 0.0334398
vt -0.238084 0.0334509
vt -0.228694 0.0335886
f 93/178/49 92/179/49 98/180/49 34/181/49 97/182/49 

usemtl M_1_1_
vn -5.7857e-17 1 -1.5663e-16
vt 0.278556 0.927989
vt 0.266328 0.927989
f 92/161/50 91/160/50 96/183/50 98/184/50 

usemtl M_3_2_
vt -0.238935 0.166099
vn -0.442387 -2.70565e-16 -0.896824
v 3.81006 0.051 4.66759
vt -0.229545 0.166237
f 35/185/51 34/176/51 97/175/51 100/186/51 

vt -0.23902 0.179401
vn -0.698653 -9.39932e-17 -0.715461
v 1.37215 0.051 7.04823
vt -0.22963 0.179539
f 36/187/52 35/185/52 100/186/52 101/188/52 

vn -0.346502 -1.69042e-16 -0.938049
f 16/26/53 36/187/53 101/188/53 17/27/53 

usemtl FrontColor
vt -133.237 176.679
vn 0.938049 5.85778e-16 -0.346502
vt -92.4011 176.679
vt -92.4011 2.00787
v 27.2777 0.051 -24.0981
vt 517.85 2.00787
vt 517.85 176.679
vt 763.538 212.89
vt 1419.44 212.89
vt 1467.94 222.309
v 25.347 5.64665 -29.3249
vt 737.218 222.309
v 33.0081 5.64665 -8.585
vt -133.237 222.309
f 32/189/54 33/190/54 99/191/54 102/192/54 81/193/54 79/194/54 73/195/54 53/196/54 103/197/54 104/198/54 

usemtl M_2
vt 0.623323 1
vt 0.968905 1
v 14.8664 0.051 -19.5135
vt 0.968905 3.60302e-15
vt 0.623323 3.66374e-15
f 81/199/42 80/200/42 105/201/42 102/202/42 

vn 0.962849 0 -0.27004
vt 1 3.93088e-15
f 80/200/55 82/74/55 94/203/55 105/201/55 

usemtl FrontColor
v 20.9834 4.48765 -41.138
vt 1233.02 176.679
vn 0.938049 4.77156e-15 -0.346502
f 106/204/56 73/195/56 79/194/56 81/193/56 

usemtl Google_Earth_Snapshot
vn -0.136673 0.989141 0.0540486
vn -0.132444 0.989982 0.0489229
f 72/126/57 79/139/57 73/127/58

vn -0.140896 0.988255 0.0591718
f 79/139/57 72/126/57 77/137/59

usemtl M_2
vn -0.921992 -5.39286e-18 0.387208
f 77/134/60 72/128/60 75/131/60 78/135/60 

usemtl Google_Earth_Snapshot
v 38.3337 4.48765 -11.236
vt 0.624983 0.559324
vn 0.15476 0.986559 -0.0524429
vt 0.58271 0.652377
vn 0.180395 0.981334 -0.0666355
f 107/205/61 53/87/61 103/206/62 104/46/62 

v 36.6482 4.48765 -16.9268
vt 0.619479 0.588618
vn 0.128989 0.99091 -0.0382039
v 34.094 4.48765 -25.5504
vt 0.611138 0.633011
v 30.7625 4.48765 -36.7986
vt 0.600259 0.690913
v 28.9248 4.48765 -43.0035
vt 0.594258 0.722854
v 28.4173 4.48765 -44.717
vt 0.592601 0.731675
f 53/87/61 107/205/61 108/207/63 109/208/63 110/209/63 111/210/63 112/211/63 

v 50.0253 4.48765 -31.4352
vt 0.662849 0.663451
v 38.7635 4.48765 -27.2752
vt 0.626295 0.641932
v 41.8731 4.48765 -18.8568
vt 0.636438 0.598602
v 53.6716 4.48765 -18.8709
vt 0.674758 0.598772
v 53.29 4.48765 -20.186
vt 0.673511 0.605542
f 113/212/8 114/213/8 115/214/8 108/207/8 107/205/8 116/215/8 117/216/8 

vn 0.0601833 0.984801 0.162928
v 53.7754 5.64665 -39.8259
vt 0.674985 0.706696
f 113/212/64 118/217/64 103/206/64 109/208/64 114/213/64 

v 46.7544 4.48765 -42.7058
vt 0.652167 0.721469
vn -0.183913 0.981492 0.053374
f 119/218/65 113/212/65 118/217/65

v 58.9947 5.64665 -21.8416
vt 0.692031 0.614117
vn -0.182001 0.981469 0.0599479
vn -0.182435 0.981524 0.0576976
f 120/219/66 118/217/65 113/212/65 117/216/67 

vn 0.255435 0.963161 -0.0841043
v 62.0894 4.71945 -23.061
vt 0.702075 0.620423
v 51.4059 4.71945 -59.8736
vt 0.667184 0.809925
vn 0.258912 0.962974 -0.0751395
v 48.5562 5.64665 -57.8102
vt 0.65794 0.799275
f 120/219/68 121/220/68 122/221/69 123/222/69 118/217/69 

v 59.0949 5.64665 -21.5705
vt 0.692357 0.612721
vn 0.251935 0.963259 -0.0930613
f 121/220/68 120/219/68 124/223/70

vn -0.181694 0.981531 0.059859
f 117/216/67 124/223/71 120/219/66

vn -0.1833 0.981617 0.0531961
f 124/223/71 117/216/67 116/215/72

usemtl M_3_2_
v 60.5412 0.051 -22.2904
vt -0.232889 0.68763
vn 0.445622 -6.02342e-16 0.895221
v 60.5412 4.48765 -22.2904
vt -0.24228 0.687492
v 62.0894 4.48765 -23.061
vt -0.242323 0.694243
vt -0.242813 0.694236
vt -0.244692 0.681149
vt -0.242087 0.657537
vt -0.241658 0.590655
vt -0.243962 0.567396
vt -0.241509 0.567432
vt -0.241192 0.51797
v 21.665 0.051 -2.93865
vt -0.231802 0.518108
f 125/224/73 126/225/73 127/226/73 121/227/73 124/228/73 116/229/73 107/230/73 104/231/73 32/232/73 31/233/73 128/234/73 

usemtl M_3_6_
vn 0.960374 0 -0.278713
v 56.7196 0.051 -35.4588
vn 0.960374 -3.60109e-32 -0.278713
v 56.7196 4.48765 -35.4588
f 125/171/74 129/170/75 130/74/75 126/173/74 

usemtl Google_Earth_Snapshot
v 53.3307 0.051 -47.1361
vt 0.673502 0.744341
vn 0.171092 0.984003 -0.049653
vt 0.68457 0.684229
vt 0.697051 0.616441
v 62.4773 -0.29 -22.377
vt 0.703339 0.616903
f 131/235/76 129/236/76 125/237/76 132/238/76 

usemtl M_3_5_
v 53.3307 4.48765 -47.1361
vn 0.960374 -7.20218e-32 -0.278713
f 133/74/77 130/173/75 129/171/75 131/170/77 

usemtl FrontColor
vt 2444.46 907.915
v 51.4059 4.48765 -59.8736
vt 2023.85 2357.23
v 49.9418 4.48765 -58.8134
vt 1966.21 2315.49
vt 2099.63 1855.75
vt 2233.05 1396.02
vt 2383.51 877.575
f 127/239/8 134/240/8 135/241/8 133/242/8 130/243/8 126/244/8 

usemtl M_3_2_
vt -0.2436 0.816886
vt -0.24311 0.816893
f 122/245/74 121/227/74 127/226/74 134/246/74 

v 46.1035 4.48765 -63.5002
vt -0.149354 0.798105
vn 0.564546 0 -0.825402
vt -0.149353 0.810037
vt -0.368079 0.810061
vt -0.36808 0.798129
f 136/247/78 55/248/78 122/249/78 134/250/78 

usemtl M_3_4_
vn -0.433783 0 -0.901018
v 17.6251 4.48765 -49.7896
f 136/171/79 137/170/79 56/74/79 55/173/79 

usemtl FrontColor
v 18.2173 4.48765 -48.1862
vt 717.218 1897.1
v 45.9551 4.48765 -61.5402
vt 1809.25 2422.84
vt 1815.1 2500.01
vt 693.9 1960.22
f 138/251/8 139/252/8 136/253/8 137/254/8 

usemtl M_3_3_
vn -0.433783 -2.04807e-31 -0.901018
v 45.9551 0.051 -61.5402
v 18.2173 0.051 -48.1862
f 138/74/80 139/173/80 140/171/80 141/170/80 

usemtl M_3
v 49.9418 0.051 -58.8134
f 142/171/78 140/170/78 139/74/78 135/173/78 

usemtl Google_Earth_Snapshot
vt 0.662434 0.804453
vn 0.0931066 0.986306 -0.136128
v 46.554 -0.29 -63.6013
vt 0.651406 0.829083
vt 0.649472 0.818463
f 142/255/81 143/256/81 140/257/81

v 51.7694 -0.29 -59.9613
vt 0.668364 0.81038
vn 0.0967891 0.985596 -0.138683
f 144/258/82 143/256/82 142/255/82

vn 0.572315 0 -0.820034
v 51.7694 -1.84 -59.9613
v 46.554 -1.84 -63.6013
f 143/256/83 144/258/83 145/258/83 146/256/83 

vn 0.96173 0 -0.274
v 62.4773 -1.84 -22.377
f 144/258/84 132/238/84 147/238/84 145/258/84 

vn 0.160661 0.985948 -0.0457727
f 132/238/85 144/258/85 131/235/85

vn 0.155726 0.986766 -0.0451938
f 131/235/86 144/258/86 142/255/86

usemtl M_3_1_
vt 4.44089e-16 1
vt 4.44089e-16 0
f 135/74/77 133/259/77 131/260/77 142/170/77 

usemtl Google_Earth_Snapshot
vn 0.450006 6.55149e-16 0.893026
v 23.6396 -0.29 -2.8062
vt 0.577303 0.515787
v 23.6396 -1.84 -2.8062
f 132/238/87 148/261/87 149/261/87 147/238/87 

vn 0.177587 0.918839 0.352418
f 132/238/88 125/237/88 148/261/88

vn 0.144018 0.946336 0.289321
f 128/45/89 148/261/89 125/237/89

vn 0.174705 0.981568 -0.0774806
v 25.3979 0.051 5.47845
f 128/45/90 150/44/90 148/261/90

usemtl M_3_2_
vt -0.231571 0.482164
vn 0.914134 0 -0.405413
vt -0.240961 0.482027
f 150/262/91 128/234/91 31/233/91 30/263/91 

v 23.2985 0.051 6.25395
vt -0.231515 0.473427
vt -0.240905 0.47329
f 151/264/42 150/262/42 30/263/42 29/265/42 

usemtl Google_Earth_Snapshot
v 23.355 0.051 8.80225
v 25.2954 0.051 14.0553
v 24.1336 0.051 8.51465
f 152/41/8 153/40/8 150/44/8 151/43/8 154/42/8 

usemtl M_3_2_
vt -0.231294 0.438919
vn 0.938049 0 -0.346502
vt -0.231434 0.46078
vt -0.240824 0.460642
vt -0.240684 0.438781
f 153/266/92 152/267/92 27/268/92 26/269/92 

vt -0.231455 0.46402
vt -0.240845 0.463882
f 152/267/42 154/270/42 28/271/42 27/268/42 

f 154/270/92 151/264/92 29/265/92 28/271/92 

v 19.2218 0.051 17.0911
vt -0.231124 0.412413
vn 0.447089 0 0.89449
vt -0.240514 0.412276
f 155/272/93 153/266/93 26/269/93 25/273/93 

usemtl Google_Earth_Snapshot
vn 0.0883587 0.980276 0.176779
v 29.745 -0.29 13.7222
vt 0.597219 0.430713
f 153/40/94 155/39/94 156/274/94

vn 0.0833646 0.983451 0.160858
v 17.5281 -0.29 20.0536
vt 0.557574 0.398004
f 156/274/95 155/39/95 157/275/95

v 14.174 -0.29 10.9733
vt 0.546633 0.444741
vn -0.121284 0.991606 0.0448005
v 16.4567 0.051 9.60542
f 158/276/96 157/275/96 155/39/96 159/38/96 

vn -0.938049 0 0.346502
v 14.174 -1.84 10.9733
v 17.5281 -1.84 20.0536
f 157/275/97 158/276/97 160/276/97 161/275/97 

vn -0.331987 0 0.943284
v 8.45769 -0.29 8.96145
vt 0.528057 0.455055
v 8.45769 -1.84 8.96145
f 158/276/98 162/277/98 163/277/98 160/276/98 

vn -0.0545234 0.986421 0.154919
f 158/276/99 159/38/99 162/277/99

vn -0.0574218 0.979168 0.194763
v 7.94878 0.051 7.09703
f 159/38/100 164/37/100 162/277/100

usemtl M_3_2_
vt -0.230702 0.346637
vn -0.282795 0 0.95918
vt -0.230924 0.381262
vt -0.240314 0.381125
vt -0.240092 0.346499
f 164/278/101 159/279/101 24/280/101 23/281/101 

f 159/279/97 155/272/97 25/273/97 24/280/97 

v 2.45938 0.051 11.2112
vt -0.23053 0.319858
vn 0.599728 -2.94366e-17 0.800204
v 2.54891 0.051 11.1441
vt -0.230533 0.320294
vt -0.23992 0.31972
f 165/282/102 166/283/102 164/278/102 23/281/102 22/284/102 

usemtl FrontColor
vt -96.8261 -441.385
vn 0 -1 -0
v 2.43941 0.051 11.1845
vt -96.0398 -440.335
vt -100.351 -438.743
f 165/285/103 167/286/103 166/287/103

usemtl M_3_2_
v 0.198409 0.051 8.1944
vt -0.230436 0.305141
vn -0.800204 4.8529e-17 0.599728
vt -0.230529 0.319728
vt -0.239826 0.305003
f 168/288/104 167/289/104 165/282/104 22/284/104 21/290/104 

usemtl Google_Earth_Snapshot
vt 0.508522 0.443556
vn -0.0501641 0.998033 0.0375964
v -2.87395 -0.29 13.1472
vt 0.491276 0.433404
f 167/291/105 168/35/105 169/292/105

vn 0.0328435 0.995498 0.0889137
v -3.06442 0.051 9.39964
f 168/35/106 170/34/106 169/292/106

usemtl M_3_2_
vt -0.230349 0.291563
vt -0.239739 0.291425
f 170/293/42 168/288/42 21/290/42 20/294/42 

vt -0.230044 0.244016
vn -0.974539 2.18247e-17 0.224217
vt -0.239434 0.243879
f 11/295/107 170/293/107 20/294/107 19/296/107 

usemtl Google_Earth_Snapshot
vn -0.450218 0.88689 0.103584
f 170/34/108 11/33/108 169/292/108

vn -0.118793 0.991949 0.0438806
vt 0.48131 0.515502
f 11/33/109 10/297/109 169/292/109

usemtl M_3_2_
vt -0.240512 0.411994
vn 0.938049 1.05797e-17 -0.346502
vt -0.231122 0.412132
vt -0.231131 0.413498
vt -0.240521 0.413361
vt -0.24052 0.41319
f 19/298/110 11/299/110 10/300/110 13/301/110 18/302/110 

usemtl Google_Earth_Snapshot
vn -0.182042 0.98171 0.0557306
vt 0.451893 0.667001
f 10/297/111 7/303/111 169/292/111

vn -7.9664e-14 1 2.4393e-14
f 10/297/112 1/30/112 7/303/112

v -17.7452 -0.29 -34.1095
vt 0.442729 0.67666
vn -0.151193 0.987359 0.0475789
f 171/304/113 169/292/113 7/303/113

vn -0.953883 0 0.300178
v -17.7452 -1.84 -34.1095
v -2.87395 -1.84 13.1472
f 169/292/114 171/304/114 172/304/114 173/292/114 

vn -0.416904 0 -0.90895
f 171/304/115 143/256/115 146/256/115 172/304/115 

vn -0.0489561 0.993081 -0.106736
f 171/304/116 7/303/116 143/256/116

vn -0.090567 0.977962 -0.188118
v 4.14582 0.051 -41.4117
vt 0.513789 0.71445
vt 0.559455 0.749457
f 7/303/117 174/305/117 141/306/117 140/257/117 143/256/117 

usemtl M_1_1_
vt 1 0.858709
vn -0.433783 1.26206e-16 -0.901018
vt -2.22045e-16 0.858709
vt 0 2.48065e-16
vt 1 2.48065e-16
f 6/307/118 38/308/118 174/309/118 7/310/118 

usemtl M_2
vt 0.973112 1
vt 0.56336 1
vt 0.56336 1.71044e-15
vt 0.973112 1.71044e-15
f 38/311/118 138/312/118 141/313/118 174/314/118 

usemtl FrontColor
v 17.4792 4.48765 -49.7194
vt 688.158 1957.46
f 175/315/8 39/61/8 38/60/8 138/251/8 137/254/8 

usemtl M_2_1_
vt 0.0102589 0
vt 0.0102589 1
f 175/316/79 39/170/79 58/74/79 57/317/79 56/173/79 137/171/79 

usemtl M_1_2_
f 40/170/79 48/74/79 58/173/79 39/171/79 

usemtl Google_Earth_Snapshot
v 2.43941 -1.84 11.1845
vn 0.346502 1.67186e-15 0.938049
f 176/291/119 167/291/119 169/292/119 173/292/119 

vt 0.508878 0.443765
vn 0.111803 0.98247 0.149176
f 166/318/120 162/277/120 164/37/120

vn 0.346502 1.68639e-15 0.938049
v 2.54891 -1.84 11.1441
f 163/277/121 162/277/121 166/318/121 177/318/121 

vn 0.46013 2.59999e-17 0.887852
v 29.745 -1.84 13.7222
f 156/274/122 157/275/122 161/275/122 178/274/122 

f 148/261/92 156/274/92 178/274/92 149/261/92 

vn 0.25227 0.96316 -0.093185
f 156/274/123 148/261/123 150/44/123

vn 0.0764803 0.997071 0.000914213
f 150/44/124 153/40/124 156/274/124

usemtl FrontColor
f 139/252/8 135/241/8 134/240/8 136/253/8 

usemtl Google_Earth_Snapshot
vn 0.152198 0.962974 -0.222524
f 55/89/125 54/88/125 123/222/125 122/221/125 

vn -0.0898116 0.987265 0.13131
v 43.9943 4.48765 -52.2163
vt 0.643153 0.770427
f 54/88/126 179/319/126 123/222/126

f 54/88/13 53/87/13 112/211/13 179/319/13 

vn 2.73931e-17 1 7.10946e-17
v 42.1851 4.48765 -47.9017
vt 0.6373 0.748191
v 43.9144 4.48765 -41.6567
vt 0.642949 0.716042
f 112/211/127 111/210/127 180/320/127 181/321/127 119/218/127 179/319/127 

usemtl M_2
vt -2.22045e-16 1
vn 0.346502 6.12847e-18 0.938049
vt 0.369222 1
v 28.9248 0.051 -43.0035
vt 0.369222 6.59195e-17
v 42.1851 0.051 -47.9017
vt -2.22045e-16 5.34295e-16
f 180/322/128 111/323/128 182/324/128 183/325/128 

vn 0.958828 5.04169e-17 -0.283986
vt 0.396396 1
v 30.7625 0.051 -36.7986
vt 0.396396 0
f 111/323/129 110/326/129 184/327/129 182/324/129 

vn -0.346502 0 -0.938049
vt 0.0301958 1
v 43.9144 0.051 -41.6567
vt 0.0301958 6.59195e-17
f 110/326/130 181/328/130 185/329/130 184/327/130 

usemtl Google_Earth_Snapshot
vn -0.0762993 0.975455 -0.206557
f 118/217/131 119/218/131 181/321/131 110/209/131 103/206/131 

f 179/319/65 119/218/65 118/217/65 123/222/65 

usemtl M_2
vn -0.963735 -4.87688e-18 0.26686
f 181/328/132 180/322/132 183/325/132 185/329/132 

vt 0.315641 1
vn 0.346502 1.0537e-31 0.938049
vt 0.445657 1
v 34.094 0.051 -25.5504
vt 0.445657 2.44596e-15
v 38.7635 0.051 -27.2752
vt 0.315641 2.46851e-15
f 114/330/133 109/331/133 186/332/133 187/333/133 

vn 0.958828 3.22067e-18 -0.283986
vt 0.483424 1
v 36.6482 0.051 -16.9268
vt 0.483424 2.87964e-15
f 109/331/134 108/334/134 188/335/134 186/332/134 

vt 0.337941 1
v 41.8731 0.051 -18.8568
vt 0.337941 2.9074e-15
f 108/334/130 115/336/130 189/337/130 188/335/130 

vn -0.938049 7.64304e-32 0.346502
f 115/336/135 114/330/135 187/333/135 189/337/135 

usemtl M_1_1_
vn 0.956008 1.06681e-17 -0.29334
f 63/99/136 65/109/136 69/112/136 64/100/136 

